<?xml version="1.0" standalone="no"?><svg xmlns="http://www.w3.org/2000/svg" viewBox="0 0 1440 320"><path fill="#5039ca" fill-opacity="1" d="M0,64L21.8,85.3C43.6,107,87,149,131,181.3C174.5,213,218,235,262,245.3C305.5,256,349,256,393,245.3C436.4,235,480,213,524,208C567.3,203,611,213,655,208C698.2,203,742,181,785,160C829.1,139,873,117,916,138.7C960,160,1004,224,1047,256C1090.9,288,1135,288,1178,288C1221.8,288,1265,288,1309,272C1352.7,256,1396,224,1418,208L1440,192L1440,320L1418.2,320C1396.4,320,1353,320,1309,320C1265.5,320,1222,320,1178,320C1134.5,320,1091,320,1047,320C1003.6,320,960,320,916,320C872.7,320,829,320,785,320C741.8,320,698,320,655,320C610.9,320,567,320,524,320C480,320,436,320,393,320C349.1,320,305,320,262,320C218.2,320,175,320,131,320C87.3,320,44,320,22,320L0,320Z"></path></svg>