<?xml version="1.0" standalone="no"?>
<svg xmlns:xlink="http://www.w3.org/1999/xlink" id="wave" style="transform:rotate(180deg); transition: 0.3s" viewBox="0 0 1440 490" version="1.1" xmlns="http://www.w3.org/2000/svg"><defs><linearGradient id="sw-gradient-0" x1="0" x2="0" y1="1" y2="0"><stop stop-color="rgba(218.678, 156.79, 50.696, 1)" offset="0%"/><stop stop-color="rgba(255, 175.602, 0.09, 1)" offset="100%"/></linearGradient></defs><path style="transform:translate(0, 0px); opacity:1" fill="url(#sw-gradient-0)" d="M0,0L26.7,8.2C53.3,16,107,33,160,57.2C213.3,82,267,114,320,163.3C373.3,212,427,278,480,261.3C533.3,245,587,147,640,130.7C693.3,114,747,180,800,245C853.3,310,907,376,960,375.7C1013.3,376,1067,310,1120,277.7C1173.3,245,1227,245,1280,236.8C1333.3,229,1387,212,1440,212.3C1493.3,212,1547,229,1600,253.2C1653.3,278,1707,310,1760,294C1813.3,278,1867,212,1920,179.7C1973.3,147,2027,147,2080,130.7C2133.3,114,2187,82,2240,98C2293.3,114,2347,180,2400,204.2C2453.3,229,2507,212,2560,212.3C2613.3,212,2667,229,2720,196C2773.3,163,2827,82,2880,81.7C2933.3,82,2987,163,3040,212.3C3093.3,261,3147,278,3200,269.5C3253.3,261,3307,229,3360,204.2C3413.3,180,3467,163,3520,179.7C3573.3,196,3627,245,3680,236.8C3733.3,229,3787,163,3813,130.7L3840,98L3840,490L3813.3,490C3786.7,490,3733,490,3680,490C3626.7,490,3573,490,3520,490C3466.7,490,3413,490,3360,490C3306.7,490,3253,490,3200,490C3146.7,490,3093,490,3040,490C2986.7,490,2933,490,2880,490C2826.7,490,2773,490,2720,490C2666.7,490,2613,490,2560,490C2506.7,490,2453,490,2400,490C2346.7,490,2293,490,2240,490C2186.7,490,2133,490,2080,490C2026.7,490,1973,490,1920,490C1866.7,490,1813,490,1760,490C1706.7,490,1653,490,1600,490C1546.7,490,1493,490,1440,490C1386.7,490,1333,490,1280,490C1226.7,490,1173,490,1120,490C1066.7,490,1013,490,960,490C906.7,490,853,490,800,490C746.7,490,693,490,640,490C586.7,490,533,490,480,490C426.7,490,373,490,320,490C266.7,490,213,490,160,490C106.7,490,53,490,27,490L0,490Z"/></svg>